<?xml version="1.0" encoding="utf-8"?>
<!-- Generator: Adobe Illustrator 16.0.0, SVG Export Plug-In . SVG Version: 6.00 Build 0)  -->
<!DOCTYPE svg PUBLIC "-//W3C//DTD SVG 1.1//EN" "http://www.w3.org/Graphics/SVG/1.1/DTD/svg11.dtd">
<svg version="1.1" id="Layer_1" xmlns="http://www.w3.org/2000/svg" xmlns:xlink="http://www.w3.org/1999/xlink" x="0px" y="0px"
	 width="373.403px" height="475.071px" viewBox="0 0 373.403 475.071" enable-background="new 0 0 373.403 475.071"
	 xml:space="preserve">
<path fill="#73C1A7" d="M68.278,324.389c-0.032,0.416,0.123,0.759,0.508,0.999c0,0.003,0.002,0.003,0.003,0.005
	C68.612,325.058,68.442,324.726,68.278,324.389z"/>
<path fill="#753918" d="M308.249,192.4l-17.317-26.915l-0.003-0.002c11.47,21.316-0.563,48.688-14.723,60.31
	c-22.596,18.549-16.188,29.006-16.188,29.006l-3.034,2.691c-30.354-11.813-52.277,32.386-53.289,57.345
	c-0.677,16.706,9.07,17.545,15.592,16.274c1.401-7.725,6.083-22.88,18.474-39.882c17.2-23.611,33.39-9.446,33.39-9.446l3.373-2.699
	c0,0-6.746-3.371,19.561-33.727C320.393,215,308.249,192.4,308.249,192.4z"/>
<path fill="#753918" d="M226.628,332.372c0,0-11.469,2.363-15.515,29.007c-4.049,26.646-14.168,58.69-45.195,75.888
	c-31.033,17.201-67.456,22.6-122.097,0c-8.565-3.539-15.629-8.044-21.305-13.224c16.706,21.438,50.582,56.424,110.346,50.325
	c82.634-8.431,94.439-59.698,94.781-87.019c0.334-27.319,14.164-31.702,14.164-31.702L226.628,332.372L226.628,332.372z"/>
<path fill="#B05726" d="M265.903,155.665c-2.959-14.466,2.145-29.456,9.44-42.29c7.303-12.836,16.809-24.33,23.856-37.302
	c-10.986,3-20.916,8.7-29.316,16.394c-8.401,7.693-15.385,16.802-21.822,26.199c-2.829,4.125-5.649,8.563-6.002,13.552
	c-0.328,4.668,1.603,9.292,4.521,12.955C251.207,150.979,258.486,155.319,265.903,155.665z"/>
<path fill="#E36F25" d="M256.008,254.35c0,0-6.406-10.457,16.19-29.009c22.596-18.55,39.8-77.238-35.416-87.355
	c0,0-51.941-0.674-82.973,26.982c-31.027,27.658-15.515,43.171-36.427,57.337l-1.684,4.386c0,0,32.717-1.013-6.406,43.508
	c-39.126,44.521-50.596,20.237-50.596,20.237l-3.37,2.023c0,0,13.151,7.423-25.299,33.729c-38.448,26.309-44.859,88.03,9.782,110.63
	c54.639,22.6,91.066,17.2,122.098,0c31.028-17.201,41.146-49.244,45.191-75.892c4.05-26.645,15.516-29.003,15.516-29.003
	l-1.685-3.036c0,0-22.262,10.453-21.25-14.503c1.012-24.96,22.935-69.161,53.29-57.346L256.008,254.35z"/>
<path fill="#B05726" d="M248.927,145.406l-68.582,94.214c-18.213-15.967-35.976-11.019-35.976-11.019L294.401,46.738
	c8.611-8.387,21.104-12.611,33.037-11.173c4.894,0.589,9.839,1.68,14.58,0.336c0.118-0.99,0.523-2.439,0.111-3.35
	c-4.442,1.806-9.824-0.921-12.063-5.161c-2.233-4.244-1.832-9.466-0.172-13.965c1.73-4.693,4.869-8.992,9.239-11.428
	c4.371-2.438,10.023-2.783,14.344-0.258c3.264,1.908,5.488,5.185,7.208,8.551c2.878,5.639,4.644,11.842,5.166,18.15
	c0.308,3.724,0.156,7.608-1.44,10.986c-1.672,3.544-4.802,6.217-8.189,8.191c-3.384,1.975-7.082,3.349-10.627,5.023
	c-10.026,4.73-18.887,11.919-25.583,20.758c-2.004,2.648-4.323,5.73-7.645,5.823c-3.7,0.105-5.828-3.959-7.681-7.165
	L248.927,145.406z"/>
<path fill="none" stroke="#231F20" stroke-width="4" stroke-miterlimit="10" d="M264.524,151.715"/>
<path fill="#763918" d="M144.37,228.602c0,0,17.763-4.948,35.976,11.019l68.582-94.214l55.759-73.349
	c0.017,0.026,0.03,0.049,0.043,0.073c3.741-7.574,7.945-15.106,12.063-22.263c-0.682-1.123-0.813-2.166-1.496-3.286
	c-6.266-2.097-13.085-2.423-19.549-1.08c-0.455,0.404-0.907,0.809-1.346,1.237L144.37,228.602z"/>
<path fill="#763918" d="M343.151,46.374c-3.743,0-6.89,2.544-7.819,5.996H325.08v4.226h10.252c0.93,3.452,4.076,5.995,7.819,5.995
	c4.478,0,8.11-3.63,8.11-8.107C351.261,50.005,347.628,46.374,343.151,46.374z"/>
<path fill="#763918" d="M365.297,36.154c-3.75,0-6.892,2.542-7.823,5.994h-10.251v4.226h10.251c0.932,3.452,4.073,5.996,7.823,5.996
	c4.476,0,8.105-3.631,8.105-8.108C373.403,39.784,369.773,36.154,365.297,36.154z"/>
<path fill="#743717" d="M177.915,270.83c1.346,1.293,1.46,3.666,0.229,5.08c-1.224,1.41-3.59,1.635-5.061,0.479
	c-1.705-1.341-1.872-4.035-0.79-5.914c1.084-1.885,3.11-3.04,5.183-3.681c3.062-0.946,6.539-0.903,9.322,0.684
	c4.242,2.416,5.947,7.886,5.338,12.729c-0.61,4.843-3.071,9.226-5.485,13.467c-5.081,8.92-10.161,17.845-15.242,26.771
	c-1.502,2.637-3.025,5.331-3.61,8.31s-0.075,6.339,2.05,8.505c2.125,2.164,6.069,2.566,8.134,0.339
	c-0.185-2.657,0.126-5.967,2.236-7.593c2.108-1.626,5.813-1.113,6.713,1.392c0.968,2.683-1.546,5.278-3.863,6.945
	c-3.384,2.431-7.341,4.748-11.454,4.093c-4.804-0.766-8.187-5.574-8.722-10.41c-0.534-4.832,1.184-9.63,3.261-14.028
	c5.795-12.273,14.572-23.039,19.573-35.656c0.854-2.156,1.603-4.411,1.571-6.732c-0.035-2.316-0.976-4.732-2.899-6.027
	C182.476,268.288,179.276,268.952,177.915,270.83z"/>
<path fill="#743717" d="M81.764,307.435c1.355,0.762,3.253-0.38,3.446-1.919c0.191-1.536-1.086-3.023-2.61-3.325
	c-1.521-0.301-3.123,0.425-4.148,1.59c-1.027,1.163-1.535,2.702-1.746,4.237c-0.302,2.222,0.129,4.776,1.938,6.09
	c2.327,1.688,5.613,0.536,8.037-1.005c3.601-2.289,6.676-5.308,9.604-8.415c8.089-8.592,15.265-18.041,21.374-28.14
	c3.509-5.804,6.816-11.999,12.225-16.097c1.552-1.179,3.446-2.195,5.361-1.849c1.918,0.344,3.468,2.688,2.395,4.31
	c-1.037-1.209-2.915-1.019-3.551,0.443c-0.636,1.461,0.307,3.313,1.794,3.886c1.487,0.571,3.267-0.015,4.334-1.196
	c2.33-2.572,0.963-7.141-2.082-8.796c-3.048-1.655-6.956-0.867-9.842,1.055c-2.886,1.924-4.97,4.805-6.989,7.626
	c-9.986,13.952-19.974,27.908-29.96,41.86c-1.191,1.666-2.425,3.371-4.155,4.47c-1.729,1.1-4.09,1.458-5.8,0.331
	C79.685,311.464,80.125,308.663,81.764,307.435z"/>
<g>
	<defs>
		<path id="SVGID_1_" d="M205.188,368.113c-0.624,2.275-1.438,5.017-2.405,8.133c-0.986,3.112-2.199,6.585-3.66,10.296
			c-1.461,3.707-3.196,7.648-5.271,11.667c-2.061,4.029-4.53,8.098-7.35,12.079c-2.846,3.971-6.104,7.81-9.748,11.354
			c-3.667,3.507-7.704,6.806-12.031,9.543l-1.591,1.024l-1.738,1.025l-0.867,0.509l-0.22,0.129l-0.158,0.085l-0.433,0.233
			l-1.735,0.934l-1.729,0.931l-1.749,0.88c-1.167,0.584-2.318,1.193-3.501,1.709c-1.179,0.533-2.339,1.096-3.517,1.593
			c-1.182,0.497-2.354,0.993-3.521,1.486c-2.367,0.893-4.703,1.794-7.045,2.542c-4.679,1.524-9.288,2.779-13.737,3.622
			c-2.211,0.514-4.404,0.76-6.512,1.141c-1.057,0.149-2.104,0.259-3.129,0.391c-1.029,0.114-2.037,0.27-3.029,0.329
			c-3.965,0.358-7.629,0.557-10.891,0.604c-1.634,0.008-3.162,0.014-4.574,0.02c-1.416-0.035-2.712-0.069-3.884-0.097
			c-1.178-0.02-2.232-0.083-3.154-0.134c-0.919-0.049-1.702-0.094-2.333-0.125c-1.205-0.058-1.867-0.089-1.933-0.09
			c31.73,5.276,56.288-0.979,78.166-13.105c31.028-17.201,41.146-49.244,45.191-75.892c0,0-0.17,0.658-0.49,1.883
			C206.303,364.042,205.796,365.838,205.188,368.113z"/>
	</defs>
	<clipPath id="SVGID_2_">
		<use xlink:href="#SVGID_1_"  overflow="visible"/>
	</clipPath>
	<rect x="83.743" y="360.93" clip-path="url(#SVGID_2_)" fill="#FFFFFF" width="0.563" height="94.267"/>
	<rect x="84.306" y="360.93" clip-path="url(#SVGID_2_)" fill="#FFFFFF" width="65.802" height="94.267"/>
	<rect x="150.108" y="360.93" clip-path="url(#SVGID_2_)" fill="#FFFFFF" width="56.995" height="94.267"/>
	<path clip-path="url(#SVGID_2_)" fill="#FFFFFF" d="M207.103,455.197V360.93V455.197z"/>
</g>
<g>
	<defs>
		<path id="SVGID_3_" d="M272.199,225.341c10.33-8.479,19.524-25.343,19.286-42.123c-0.012,0.089-0.054,0.384-0.127,0.894
			c-0.088,0.604-0.186,1.492-0.365,2.607c-0.229,1.113-0.412,2.463-0.805,3.982c-0.322,1.524-0.835,3.212-1.385,5.036
			c-0.324,0.899-0.616,1.847-0.972,2.81c-0.394,0.951-0.745,1.947-1.178,2.946c-0.87,1.991-1.835,4.068-2.984,6.134
			c-0.289,0.516-0.573,1.035-0.863,1.562c-0.313,0.512-0.628,1.026-0.942,1.546c-0.609,1.047-1.337,2.037-2.008,3.071
			c-1.442,1.999-2.933,4.016-4.639,5.827l-0.621,0.698c-0.21,0.222-0.426,0.429-0.637,0.643c-0.432,0.428-0.833,0.856-1.286,1.286
			c-0.957,0.853-1.907,1.703-2.851,2.549c-0.977,0.862-1.94,1.725-2.877,2.594c-0.896,0.916-1.783,1.824-2.651,2.716
			c-0.442,0.438-0.846,0.91-1.239,1.385c-0.396,0.47-0.788,0.937-1.177,1.399c-0.791,0.899-1.463,1.885-2.129,2.825
			c-0.325,0.478-0.677,0.917-0.959,1.406c-0.285,0.486-0.569,0.966-0.846,1.433c-0.573,0.922-1.011,1.893-1.431,2.816
			c-0.456,0.899-0.722,1.854-1.029,2.722c-0.161,0.429-0.234,0.885-0.339,1.311c-0.097,0.431-0.196,0.845-0.272,1.25
			c-0.227,1.643-0.28,3.088-0.074,4.259c0.042,0.586,0.222,1.095,0.323,1.53c0.164,0.431,0.265,0.797,0.412,1.073
			c0.129,0.281,0.251,0.488,0.34,0.623c0.079,0.136,0.134,0.199,0.134,0.199S249.602,243.893,272.199,225.341z"/>
	</defs>
	<clipPath id="SVGID_4_">
		<use xlink:href="#SVGID_3_"  overflow="visible"/>
	</clipPath>
	<rect x="249.603" y="183.217" clip-path="url(#SVGID_4_)" fill="#FFFFFF" width="5.23" height="71.134"/>
	<rect x="254.833" y="183.217" clip-path="url(#SVGID_4_)" fill="#FFFFFF" width="19.646" height="71.134"/>
	<rect x="274.48" y="183.217" clip-path="url(#SVGID_4_)" fill="#FFFFFF" width="17.005" height="71.134"/>
	<rect x="291.485" y="183.217" clip-path="url(#SVGID_4_)" fill="#FFFFFF" width="0.236" height="71.134"/>
</g>
<g>
	<defs>
		<path id="SVGID_5_" d="M199.263,316.997c0.125,0.807,0.289,1.431,0.394,1.85c0.105,0.425,0.18,0.646,0.18,0.646v-0.012
			c-0.172-1.509-0.23-3.196-0.155-5.095c0.591-14.495,8.232-35.479,20.479-48.211c0.003-0.003,0.008-0.011,0.008-0.011
			s-0.181,0.142-0.524,0.406c-0.335,0.274-0.846,0.66-1.466,1.19c-0.639,0.509-1.34,1.199-2.146,2.002
			c-0.395,0.406-0.851,0.811-1.27,1.291c-0.419,0.479-0.863,0.981-1.324,1.507c-0.944,1.042-1.805,2.285-2.785,3.563
			c-0.461,0.652-0.903,1.348-1.375,2.048c-0.23,0.354-0.465,0.709-0.7,1.072c-0.216,0.371-0.438,0.745-0.659,1.12
			c-0.905,1.503-1.748,3.105-2.558,4.756c-0.41,0.822-0.776,1.674-1.149,2.524l-0.558,1.286l-0.512,1.301
			c-0.686,1.741-1.261,3.519-1.813,5.272c-0.494,1.771-0.975,3.516-1.31,5.237c-0.184,0.855-0.362,1.698-0.475,2.537
			c-0.119,0.837-0.28,1.645-0.354,2.447c-0.079,0.799-0.153,1.58-0.224,2.328c-0.069,0.752-0.078,1.505-0.105,2.207
			c-0.079,1.427,0.033,2.663,0.073,3.79C198.981,315.22,199.133,316.182,199.263,316.997z"/>
	</defs>
	<clipPath id="SVGID_6_">
		<use xlink:href="#SVGID_5_"  overflow="visible"/>
	</clipPath>
	<rect x="198.782" y="266.159" clip-path="url(#SVGID_6_)" fill="#FFFFFF" width="0.146" height="53.33"/>
	<rect x="198.928" y="266.159" clip-path="url(#SVGID_6_)" fill="#FFFFFF" width="11.381" height="53.33"/>
	<rect x="210.309" y="266.159" clip-path="url(#SVGID_6_)" fill="#FFFFFF" width="9.863" height="53.33"/>
	<path clip-path="url(#SVGID_6_)" fill="#FFFFFF" d="M220.172,319.489v-53.33V319.489z"/>
</g>
<path fill="#904620" d="M351.897,33.902c6.114-1.174,10.605-7.477,10.279-13.695c-0.324-6.219-5.017-11.807-10.922-13.792
	c-5.902-1.983-12.678-0.565-17.707,3.112c-1.048,0.768-2.2,1.818-3.327,3.055c-0.112,0.28-0.222,0.56-0.326,0.841
	c-1.66,4.5-2.062,9.722,0.172,13.965c0.868,1.637,2.201,3.044,3.771,4.056c-2.779-2.766-3.949-7.107-2.92-10.926
	c1.197-4.448,5.158-7.953,9.671-8.886c4.512-0.93,9.396,0.622,12.752,3.781c2.675,2.516,4.438,6.112,4.302,9.784
	C357.509,28.867,355.297,32.503,351.897,33.902z"/>
<path fill="#743717" d="M147.75,307.435c0.167-7.743,1.09-15.378,2.428-23.004c-12.174-8.468-27.716-11.938-42.332-9.453
	c2.231,8.348,4.358,16.94,6.595,25.29C125.452,302.245,137.264,303.542,147.75,307.435z"/>
<path fill="#FFF5D0" d="M150.178,284.431l0.555,23.004h-2.982C147.75,307.435,148.289,290.93,150.178,284.431z"/>
<path fill="#602D16" d="M59.066,443.882c21.682-33.684,42.387-67.988,62.07-102.876c-3.479-6.434-9.972-11.16-17.169-12.468
	c-7.197-1.309-14.943,0.816-20.465,5.617c-9.891,35.716-21.54,71.464-33.72,106.55C52.939,441.862,56.033,442.919,59.066,443.882z"
	/>
<path fill="#753918" d="M105.073,328.772c-0.369-0.083-0.734-0.166-1.105-0.233c-7.197-1.309-14.943,0.816-20.465,5.617
	c-9.891,35.716-21.54,71.464-33.72,106.55c0.74,0.271,1.465,0.521,2.2,0.778L105.073,328.772z"/>
<polygon fill="#010101" points="87.479,338.292 86.023,337.698 112.037,273.79 112.111,273.7 295.747,45.501 297.57,45.168 
	113.407,274.595 "/>
<polygon fill="#010101" points="94.461,339.885 93.014,339.261 121.244,273.788 121.305,273.707 300.36,44.756 302.391,44.715 
	122.607,274.596 "/>
<polygon fill="#010101" points="101.622,342.909 100.213,342.206 133.142,276.404 133.185,276.348 305.684,44.756 307.531,44.905 
	134.49,277.23 "/>
<polygon fill="#010101" points="108.29,345.375 106.924,344.59 143.481,280.975 311.922,45.635 313.505,46.035 144.804,281.823 "/>
<circle fill="#010101" cx="86.751" cy="337.995" r="2.317"/>
<path fill="#010101" d="M96.053,339.898c0,1.278-1.037,2.317-2.313,2.317c-1.282,0-2.321-1.039-2.321-2.317
	c0-1.282,1.039-2.316,2.321-2.316C95.016,337.582,96.053,338.616,96.053,339.898z"/>
<path fill="#010101" d="M103.236,342.751c0,1.274-1.037,2.314-2.317,2.314c-1.277,0-2.314-1.04-2.314-2.314
	c0-1.282,1.037-2.318,2.314-2.318C102.199,340.433,103.236,341.469,103.236,342.751z"/>
<path fill="#010101" d="M110.122,344.982c0,1.282-1.037,2.315-2.316,2.315s-2.318-1.033-2.318-2.315
	c0-1.278,1.039-2.317,2.318-2.317S110.122,343.704,110.122,344.982z"/>
</svg>
